<?xml version="1.0" encoding="utf-8"?>
<!-- Generator: Adobe Illustrator 27.2.0, SVG Export Plug-In . SVG Version: 6.00 Build 0)  -->
<svg version="1.1" id="Layer_1" xmlns="http://www.w3.org/2000/svg" xmlns:xlink="http://www.w3.org/1999/xlink" x="0px" y="0px"
	 viewBox="0 0 395.56 97.66" style="enable-background:new 0 0 395.56 97.66;" xml:space="preserve">
<style type="text/css">
	.st0{fill:#353535;}
</style>
<g>
	<path class="st0" d="M91.86,29.56c6.35,5.09,8.24,5.63,15.24,13.63c0,0,1.79,1.71,1.44,2.26c-8.21-8.55-18.26-12.66-29.79-12.03
		c-11.64,0.64-21.43,5.49-28.55,15.16c-0.31-0.27,0.9-2.39,0.9-2.39c1.87-2.56,1.71-3.73,3.83-6.07c2.16-2.39,4.77-4.38,7.83-7.13
		c-18.44,3.48-35.81,7.42-51.47,16.76c-4.42,2.64-6.24,5.7-4.65,11.08c1.51,5.1,1.88,10.54,1.85,16.07
		c-4.77-6.39-9.06-13.18-8.45-21.18c0.23-3.01,3.81-6.56,6.76-8.43c18.99-12,40.21-18.04,62.2-20.89
		c34.09-4.42,68.39-2.39,102.61-1.67c27.59,0.58,55.21,1.04,82.72,3.02c13.93,1,26.95-2.82,40.44-3.82
		c19.37-1.45,38.5,0.48,57.65,2.77c3.9,0.47,7.78,1.17,11.66,2.21c-37.77-1.6-75.52-3.53-112.19,9.57c1.37-0.87,2.72-1.77,4.11-2.6
		c1.55-0.93,3.14-1.8,4.67-3.19C204.46,28.38,148.19,28.47,91.86,29.56z"/>
	<path class="st0" d="M389.22,52.84c-2.64-6.45-4.98-13.04-7.7-19.45c-2.55-6.01-6.85-9.9-13.67-10.95
		c-30.67-4.7-61.33-9.5-91.98-14.38c-40.19-6.4-80.06-5.01-119.63,4.61c-5.92,1.44-11.83,2.92-18.05,3.31
		c8.45-2.52,16.87-5.17,25.36-7.53c31.83-8.86,64.27-10.34,96.84-6.33c25.02,3.08,49.85,7.79,74.79,11.54
		c11.82,1.78,23.71,3.08,35.58,4.45c7.84,0.91,13.48,4.81,16.11,12.2c3.06,8.57,5.67,17.31,8.22,26.05c0.65,2.22,0.33,4.73,0.46,7.1
		C395.11,63.58,390.75,56.56,389.22,52.84z"/>
	<path class="st0" d="M261.02,23.84c3.65-1.69,8.44-3.96,12.09-5.64c0.01-0.61-33.26-7.41-49.74-8.07
		c-16.88-0.67-33.33,2.31-50.17,6.14c18.1-12.05,100.38-11.08,112.95,1.71C278.3,22.7,269.43,22.26,261.02,23.84z"/>
	<path class="st0" d="M12.59,53.62c11.33-7.77,23.99-11.99,37.5-13.9C38.9,47.86,25.5,50.08,12.59,53.62z"/>
</g>
<g>
	<path class="st0" d="M44.57,97.13c-2.27,0-3.42-1.45-3.04-3.71l4.39-26.48c0.43-2.46,1.88-3.71,4.34-3.71h8.15
		c6.56,0,10.47,3.04,10.47,8.01c0,3.67-1.78,6.8-5.31,8.2v0.1c2.75,1.3,4.1,3.62,4.1,6.99c0,3.23-1.16,5.84-3.47,7.77
		c-2.32,1.88-5.31,2.85-8.97,2.85H44.57z M48.33,81.5l-1.78,10.9h8.73c4.24,0,7.43-2.17,7.43-6.03c0-2.89-2.07-4.87-5.16-4.87H48.33
		z M49.01,77.5h7.62c4.2,0,7.14-1.98,7.14-5.31c0-2.85-1.98-4.24-5.88-4.24h-7.23L49.01,77.5z"/>
	<path class="st0" d="M80.16,84.11l-1.78,10.8c-0.29,1.59-1.11,2.41-2.51,2.41c-1.69,0-2.65-1.3-2.41-3.09l4.63-27.59
		c0.34-2.07,1.83-3.42,4-3.42h8.05c3.52,0,6.37,0.92,8.44,2.7c2.12,1.79,3.18,4.15,3.18,7.04c0,5.21-3.09,9.26-9.45,10.76l6.08,9.55
		c0.34,0.53,0.53,1.06,0.53,1.69c0,1.3-0.96,2.41-2.46,2.41c-0.92,0-1.74-0.48-2.36-1.5l-6.42-10.23c-0.77-1.11-0.96-1.4-2.36-1.54
		H80.16z M80.89,79.77h7.57c5.16,0,8.1-2.65,8.1-6.51c0-3.42-2.51-5.31-6.75-5.31h-6.95L80.89,79.77z"/>
	<path class="st0" d="M129.36,90.81h0.1c0.34-2.94,0.87-6.61,1.59-11l2.41-14.37c0.24-1.54,1.21-2.41,2.51-2.41
		c1.69,0,2.75,1.3,2.41,3.18l-4.53,26.72c-0.53,2.94-1.93,4.39-4.2,4.39c-1.78,0-3.14-0.96-3.96-2.94l-10.76-25.03h-0.1
		c-0.24,1.74-0.72,5.06-1.5,9.98l-2.6,15.58c-0.29,1.59-1.11,2.41-2.51,2.41c-1.69,0-2.65-1.25-2.41-3.04l4.53-26.91
		c0.53-2.94,2.12-4.34,4.24-4.34c2.51,0.19,3.23,1.45,3.96,3.13L129.36,90.81z"/>
	<path class="st0" d="M187.63,69.01c0-0.34-0.15-0.53-0.39-0.53c-0.24,0-0.39,0.14-0.53,0.48l-9.69,24.6
		c-0.96,2.51-2.56,3.76-4.73,3.76s-3.76-1.69-3.96-4.44l-1.64-23.92c-0.05-0.34-0.19-0.48-0.43-0.48c-0.29,0-0.48,0.19-0.53,0.53
		l-7.67,26.29c-0.34,1.21-1.35,2.03-2.56,2.03c-1.78,0-2.85-1.45-2.31-3.23l7.91-26.43c0.96-3.28,2.75-4.92,5.4-4.92
		c2.51,0,4.44,1.93,4.63,4.97l1.45,23.2c0.05,0.29,0.14,0.43,0.39,0.43s0.43-0.14,0.53-0.43l9.12-23.39
		c1.25-3.18,3.04-4.78,5.4-4.78c2.65,0,4.44,2.07,4.39,5.11l-0.72,26.77c-0.05,1.78-0.96,2.7-2.65,2.7c-1.35,0-2.46-1.11-2.41-2.7
		L187.63,69.01z"/>
	<path class="st0" d="M201.56,93.61c-2.75-2.7-3.96-6.27-3.52-10.76c0.24-2.6,0.58-4.82,0.92-6.61c0.82-4.1,2.51-7.38,5.16-9.84
		c2.65-2.46,6.03-3.67,10.13-3.67c4.34,0,7.77,1.4,10.32,4.2c2.56,2.75,3.62,6.22,3.23,10.37c-0.19,2.41-0.48,4.68-0.92,6.8
		c-1.59,8.63-7.14,13.55-15,13.55C207.79,97.66,204.31,96.31,201.56,93.61z M221.48,84.4c0.53-2.17,0.92-4.63,1.16-7.33
		c0.24-2.75-0.48-5.02-2.07-6.75c-1.59-1.79-3.81-2.65-6.56-2.65c-4.82,0-8.59,3.38-9.89,9.02c-0.53,2.36-0.87,4.53-1.01,6.42
		c-0.24,3.14,0.43,5.55,2.12,7.19c1.69,1.64,3.86,2.46,6.46,2.46C216.76,92.74,220.18,89.66,221.48,84.4z"/>
	<path class="st0" d="M240.68,67.95H232c-1.54,0-2.51-1.06-2.51-2.41s1.16-2.32,2.56-2.32h22.91c3.38-0.24,3.18,4.97-0.05,4.73
		h-9.26l-4.53,26.96c-0.29,1.59-1.11,2.41-2.51,2.41c-1.69,0-2.65-1.25-2.41-3.04L240.68,67.95z"/>
	<path class="st0" d="M260.55,93.61c-2.75-2.7-3.96-6.27-3.52-10.76c0.24-2.6,0.58-4.82,0.92-6.61c0.82-4.1,2.51-7.38,5.16-9.84
		c2.65-2.46,6.03-3.67,10.13-3.67c4.34,0,7.77,1.4,10.32,4.2c2.56,2.75,3.62,6.22,3.23,10.37c-0.19,2.41-0.48,4.68-0.92,6.8
		c-1.59,8.63-7.14,13.55-15,13.55C266.77,97.66,263.3,96.31,260.55,93.61z M280.47,84.4c0.53-2.17,0.92-4.63,1.16-7.33
		c0.24-2.75-0.48-5.02-2.07-6.75c-1.59-1.79-3.81-2.65-6.56-2.65c-4.82,0-8.59,3.38-9.89,9.02c-0.53,2.36-0.87,4.53-1.01,6.42
		c-0.24,3.14,0.43,5.55,2.12,7.19c1.69,1.64,3.86,2.46,6.46,2.46C275.75,92.74,279.17,89.66,280.47,84.4z"/>
	<path class="st0" d="M297.31,84.11l-1.78,10.8c-0.29,1.59-1.11,2.41-2.51,2.41c-1.69,0-2.65-1.3-2.41-3.09l4.63-27.59
		c0.34-2.07,1.83-3.42,4-3.42h8.06c3.52,0,6.37,0.92,8.44,2.7c2.12,1.79,3.18,4.15,3.18,7.04c0,5.21-3.09,9.26-9.45,10.76l6.08,9.55
		c0.34,0.53,0.53,1.06,0.53,1.69c0,1.3-0.96,2.41-2.46,2.41c-0.92,0-1.74-0.48-2.36-1.5l-6.42-10.23c-0.77-1.11-0.96-1.4-2.36-1.54
		H297.31z M298.03,79.77h7.57c5.16,0,8.1-2.65,8.1-6.51c0-3.42-2.51-5.31-6.75-5.31h-6.95L298.03,79.77z"/>
	<path class="st0" d="M323.98,73.26c0-0.43,0.24-0.92,0.67-1.5c0.92-1.06,1.5-2.22,1.74-3.47l0.48-2.94
		c0.24-1.35,1.21-2.17,2.36-2.17c1.5,0,2.32,1.21,2.07,2.6l-0.48,2.65c-0.43,2.27-1.16,4.05-2.27,5.31
		c-0.82,0.96-1.69,1.45-2.56,1.45C324.8,75.19,323.98,74.41,323.98,73.26z"/>
	<path class="st0" d="M355.57,81.41c1.79,1.4,2.65,3.42,2.65,5.98c0,3.04-1.11,5.55-3.38,7.43s-5.26,2.85-8.97,2.85
		c-2.56,0-5.06-0.43-7.43-1.3s-4.1-1.83-5.21-2.89c-0.72-0.63-1.06-1.35-1.06-2.12c0-1.35,1.06-2.41,2.41-2.41
		c0.72,0,1.54,0.39,2.56,1.11c1.01,0.72,2.32,1.35,3.91,1.93c1.64,0.53,3.28,0.82,4.87,0.82c4.05,0,7.14-2.03,7.14-5.06
		c0-2.56-2.12-3.76-6.13-5.11c-3.14-1.01-5.02-1.83-7.33-3.42c-2.27-1.59-3.42-3.86-3.42-6.75c0-2.94,1.16-5.31,3.42-7.04
		c2.27-1.78,5.11-2.65,8.44-2.65c4.15,0,7.62,0.92,10.42,2.8c1.11,0.68,1.64,1.5,1.64,2.51c0,1.35-0.92,2.46-2.41,2.46
		c-0.67,0-1.4-0.24-2.17-0.72c-2.31-1.4-4.87-2.12-7.67-2.12c-4.1,0-6.51,2.17-6.51,4.82c0,2.46,2.22,3.71,6.51,5.11
		C351.23,78.71,353.79,79.96,355.57,81.41z"/>
</g>
<text transform="matrix(1 0 0 1 322.1743 -899.8682)" style="font-family:'RubrikMediumItalic'; font-size:48.2327px;">BRN MOTOR’S</text>
</svg>
